<?xml version="1.0" encoding="UTF-8"?>
<svg version="1.1" viewBox="0 0 2048 648" width="518" height="164" xmlns="http://www.w3.org/2000/svg">
<path transform="translate(942,132)" d="m0 0h58l2 2 1 117 10-8 16-10 10-5 13-4 18-2 22 1 17 4 16 8 12 9 8 8 9 12 8 16 6 19 2 10 1 10 1 25v138l-1 3h-58l-5-1-1-4-1-143-1-15-6-15-6-10-8-7-12-6-15-4h-9l-12 3-14 7-3 3h-2l-2 4-7 9-4 10-2 14-1 153-1 2h-45l-17-1-2-2-1-94v-89l1-166z" fill="#1A7742"/>
<path transform="translate(1739,151)" d="m0 0h28l1 1v78h79l2 1 6 16 13 35 14 36 18 47 13 34 10 26 5 12h2l5-11 6-16 8-20 21-58 18-49 15-41 5-10 2-2h30l-3 9-8 21-6 17-18 49-10 27-17 45-15 39-15 40-18 46-18 48-11 27-4 6h-28l-3-1v-6l7-16 11-28 21-54 5-13 1-3-5-13-17-43-9-23-6-15-4-11-10-25-17-44-11-29-7-19h-57l1 135 1 28 2 14 4 7 10 6 11 4 11 1h25l2 5v22l-2 1h-48l-13-2-10-5-10-9-6-7-5-8-3-19-1-174h-44l1 74v88l-1 62h-29l-4-1-1-33v-103l1-87 1-29 2-1h74v-77z" fill="#101110"/>
<path transform="translate(512,222)" d="m0 0h30l17 3 18 6 16 8 12 9 8 7 7 8 10 14 9 17 8 28 2 14v37l-4 4-20 1h-39l-114 1h-3l7 21 7 13 3 3v2l4 2 5 4 16 7 12 2 14-1 15-5 8-5 8-9 4-8 2-2 57-1 10 1-1 10-12 25-4 5-3 6-14 14h-2l-1 3-5 1-1 3-9 5-14 7-20 6-14 3h-25l-15-3-25-8-17-10-13-10-10-10-11-15-8-16-6-15-5-19-2-19v-23l2-17 7-25 12-25 8-11 20-20 15-10 20-8 16-4zm4 56-10 3-13 7-12 12-8 16-4 11v2l7 1h106l1-1-1-8-4-9-3-9-7-8-9-8-15-7-8-2z" fill="#1B7843"/>
<path transform="translate(780,222)" d="m0 0h31l17 3 16 5 16 8 10 7 10 9 10 11 10 16 10 23 2 11-5 2h-54l-9-2-13-20-8-7-11-5-11-3h-13l-15 5-10 7-8 8-8 15-4 15-1 7-1 19 1 22 3 14 8 16 6 8 10 8 14 6 4 1h16l16-5 9-6 7-8 5-12 4-4h66l1 4-4 13-8 19-8 12-8 10-11 11-13 9-14 7-26 8-11 2h-24l-15-3-24-8-14-8-11-8-9-8-9-11-7-9-3-6-4-6-4-12-4-9-4-21-1-9v-37l3-19 4-13 8-20 4-4 3-8 8-10 15-15 11-8 17-9 19-6z" fill="#1A7842"/>
<path transform="translate(340,53)" d="m0 0h61l151 1-1 4-10 17-6 12-12 20-4 5-178 1-8 7-10 12-16 20-14 18-12 16-18 22-6 7h-127l-18-1-7-8-12-20-11-19-3-5 1-4 149-2 8-8 9-11 11-12 11-14 9-11 24-28 11-13 4-5z" fill="#70AD48"/>
<path transform="translate(1294,132)" d="m0 0h9l5 1 2 9v17l-1 5-24 1-10 3-6 5h-2l-2 4-5 8-3 12-3 31 2 1 109 1 1 72v181l-4 2-29-1-1-1v-222h-77v223l-1 1-30-1-1-125v-98l-33-1-1-1v-19l1-10 32-1 3-30 1-16 3-10 8-14 9-10 11-7 14-6 13-3z" fill="#111211"/>
<path transform="translate(374,157)" d="m0 0h114l3 1-2 6-8 14-6 11-12 20-5 6h-95v211l-7 11-20 26-12 15-8 11-4 8-3 1-1-3v-282l11-13 9-11 11-13 9-11 5-6 2-1z" fill="#1A7842"/>
<path transform="translate(1510,225)" d="m0 0h24l15 3 19 8 13 8 10 9 8 9 9 15 5 11 3 14 3 27 1 16 1 60v78l-1 1h-33l-1-1v-143l-1-20-3-15-6-15-7-10-5-6-11-8-13-6-13-3-8-1h-13l-15 3-12 5-10 7-8 8-7 10-7 14-4 17-1 10-1 26-1 128h-30l-3-1-1-58v-78l1-115 1-2h31l1 1v36l3-2 3-5 9-10 12-9 19-10 13-4z" fill="#101111"/>
<path transform="translate(17,54)" d="m0 0h230l-1 4-14 18-9 12-8 10-11 12-3 2h-140l-11-1-3-3-16-29-11-19z" fill="#70AD48"/>
<path transform="translate(228,260)" d="m0 0h25l1 5v190l-1 27-1 2-4-1-8-11-8-12-12-17-14-19-4-6-1-114v-42l1-1z" fill="#1A7843"/>
<path transform="translate(1346,133)" d="m0 0 9 1 6 3 7 8 3 7 1 9-2 8-6 8-5 4-4 2h-13l-8-4-6-8-3-8v-10l3-8 6-7 8-4z" fill="#6FAB48"/>
<path transform="translate(1673,133)" d="m0 0 9 1 8 5 6 7 3 8v11l-4 8-5 6-6 3h-15l-8-5-6-10-1-5v-8l3-9 7-8 5-3zm1 11m4 0m-14 4-2 3v16l2 2v-10l1-11z" fill="#1E7A42"/>
<path transform="translate(49,109)" d="m0 0h154v2l-2 1h-140l-11-1z" fill="#143221"/>
<path transform="translate(519,108)" d="m0 0h2l-2 4-178 1-8 7v-3l8-7 174-1z" fill="#101412"/>
<path transform="translate(1696,149)" d="m0 0 2 2 1 3v11l-4 8-5 6-6 3h-15l-8-5-6-10v-9l2 3 6 12 5 4 5 2 9-1 8-7 5-8 1-4z" fill="#131715"/>
<path transform="translate(1695,154)" d="m0 0h1v9l-6 9-8 7h-8l-1-3 4-1 6-5 10-13z" fill="#6FAD47"/>
<path transform="translate(1133,242)" d="m0 0 4 2 8 8 9 12 5 13 1 6-3-4-8-16-12-16z" fill="#529047"/>
<path transform="translate(1344,144)" d="m0 0h7l5 3-2 6-2-2h-3-7l-1-3z" fill="#1B7942"/>
<path transform="translate(622,443)" d="m0 0 1 3-7 8-9 9h-2l-1 3-5 1 5-5 7-6 1-2h2l2-4z" fill="#A5A8A6"/>
<path transform="translate(521,275)" d="m0 0h9l9 2 2 2-26-1 1-2z" fill="#111312"/>
<path transform="translate(1662,167)" d="m0 0h3l4 7 3 3v2l-6-2-5-6z" fill="#62A547"/>
<path transform="translate(1133,242)" d="m0 0 4 2 8 8 4 7-1 2-11-14z" fill="#78AA5C"/>
<path transform="translate(891,440)" d="m0 0 1 3-9 11-3 1 2-4z" fill="#212E26"/>
<path transform="translate(473,312)" d="m0 0 1 4-4 11h-2l1-6z" fill="#1F2E25"/>
</svg>
