<?xml version="1.0" encoding="UTF-8"?>
<svg version="1.1" xmlns="http://www.w3.org/2000/svg" width="122" height="113">
<path d="M0 0 C1.7206794 0.01273453 1.7206794 0.01273453 3.47612 0.02572632 C7.13478067 0.05927444 10.79122586 0.1345642 14.44921875 0.2109375 C16.93160877 0.24103492 19.41403337 0.2684111 21.89648438 0.29296875 C27.97731656 0.35907067 34.05685938 0.45943611 40.13671875 0.5859375 C40.45032792 5.13327044 40.44859559 7.82607664 38.70458984 12.07519531 C35.95545521 14.76316837 35.63631379 14.96375665 32.04931641 15.07324219 C30.38170329 14.9940461 28.71526245 14.88707134 27.05078125 14.7578125 C25.21968996 14.68448017 23.38836881 14.61671758 21.55688477 14.55395508 C20.60741974 14.51525299 19.65795471 14.4765509 18.67971802 14.43667603 C2.50617955 13.27264958 2.50617955 13.27264958 -11.6484375 19.49609375 C-14.73432885 23.14665026 -17.06300607 27.08652619 -18.90405273 31.49536133 C-20.0547617 34.00325668 -20.83805335 35.67038752 -22.86328125 37.5859375 C-25.64375031 38.06588918 -28.02777756 38.28835727 -30.8203125 38.328125 C-31.9911866 38.35521042 -31.9911866 38.35521042 -33.18571472 38.38284302 C-34.83727692 38.41184546 -36.48906884 38.42962111 -38.14086914 38.43701172 C-40.65974202 38.46078611 -43.16875154 38.55902069 -45.68554688 38.66015625 C-57.35502846 38.89505448 -57.35502846 38.89505448 -61.33740234 35.43847656 C-63.92917442 31.29620823 -64.86328125 28.49858096 -64.86328125 23.5859375 C-64.19385498 23.59117432 -63.52442871 23.59641113 -62.8347168 23.60180664 C-59.74008154 23.62286221 -56.64546144 23.6356872 -53.55078125 23.6484375 C-52.49826172 23.65681641 -51.44574219 23.66519531 -50.36132812 23.67382812 C-47.19373943 23.68357455 -44.03037557 23.63903523 -40.86328125 23.5859375 C-39.87134766 23.60019775 -38.87941406 23.61445801 -37.85742188 23.62915039 C-33.97837397 23.53867021 -31.04357936 23.46426867 -27.86694336 21.1003418 C-26.05380071 19.12594076 -24.51685692 17.09966446 -22.98828125 14.8984375 C-22.45976563 14.19009766 -21.93125 13.48175781 -21.38671875 12.75195312 C-20.39241342 11.41923942 -19.4113716 10.0764257 -18.44970703 8.7199707 C-17.66442627 7.66362427 -17.66442627 7.66362427 -16.86328125 6.5859375 C-16.22221436 5.5244751 -15.58114746 4.4630127 -14.9206543 3.36938477 C-11.07413558 -1.1606553 -5.47981386 -0.15265627 0 0 Z " fill="#6DA646" transform="translate(81.86328125,7.4140625)"/>
<path d="M0 0 C0.69612396 0.01556442 1.39224792 0.03112885 2.10946655 0.04716492 C4.29484423 0.10790831 6.46694161 0.24550044 8.6484375 0.38671875 C10.14434945 0.4420088 11.64045981 0.49217913 13.13671875 0.53710938 C16.76980999 0.6572156 20.3953248 0.84630621 24.0234375 1.07421875 C22.71089993 5.96640423 21.10494221 10.86382928 17.0234375 14.07421875 C13.21818079 14.92895185 9.5861874 14.7373411 5.7109375 14.51171875 C4.68419922 14.48013672 3.65746094 14.44855469 2.59960938 14.41601562 C0.07128566 14.33369811 -2.4511611 14.21880886 -4.9765625 14.07421875 C-4.95213577 14.6525647 -4.92770905 15.23091064 -4.90254211 15.82678223 C-4.65637773 21.92720564 -4.49216665 28.02618985 -4.37231445 34.13037109 C-4.31749152 36.39820776 -4.24279864 38.66566487 -4.14672852 40.93212891 C-3.56045417 55.13438984 -4.11014519 65.22668539 -13.39916992 76.47070312 C-14.67497925 77.75944336 -14.67497925 77.75944336 -15.9765625 79.07421875 C-16.6365625 79.07421875 -17.2965625 79.07421875 -17.9765625 79.07421875 C-18.20940971 70.52883166 -18.38650816 61.98479312 -18.49468422 53.43700695 C-18.5466351 49.46670313 -18.61695123 45.49858618 -18.73095703 41.52954102 C-18.84051487 37.69083392 -18.89958441 33.85421389 -18.92533493 30.01406288 C-18.94365594 28.55749993 -18.97943495 27.10103718 -19.03386307 25.64537621 C-19.31899218 17.69537718 -18.73068717 11.97954853 -13.4140625 5.65820312 C-8.83834223 1.30618733 -6.28127642 -0.28087008 0 0 Z " fill="#1E7444" transform="translate(86.9765625,30.92578125)"/>
<path d="M0 0 C17.49 0 34.98 0 53 0 C51.68 2.31 50.36 4.62 49 7 C48.64752197 7.72002197 48.29504395 8.44004395 47.93188477 9.18188477 C46.49575636 11.49640564 45.36650647 12.59679736 43 14 C37.78418136 14.93869889 32.72979732 15.04930963 27.44116211 14.9675293 C24.93827459 14.93750929 22.44559831 14.98764496 19.94335938 15.04492188 C8.38410122 15.11421554 8.38410122 15.11421554 4.83642578 12.25830078 C3.54062442 10.18758266 2.75758926 8.31265569 2 6 C1.34 5.01 0.68 4.02 0 3 C0 2.01 0 1.02 0 0 Z " fill="#71AC4B" transform="translate(3,8)"/>
<path d="M0 0 C4.29 0 8.58 0 13 0 C13 17.16 13 34.32 13 52 C8.6911286 49.8455643 7.48505575 48.39100049 4.8125 44.5 C4.11769531 43.5203125 3.42289063 42.540625 2.70703125 41.53125 C-1.4139605 33.00636088 -0.1244625 22.63124465 -0.0625 13.375 C-0.05798828 12.08464844 -0.05347656 10.79429688 -0.04882812 9.46484375 C-0.03714306 6.30987549 -0.01921135 3.15493141 0 0 Z " fill="#1A7642" transform="translate(44,55)"/>
<path d="M0 0 C4.29 0 8.58 0 13 0 C13 17.16 13 34.32 13 52 C6.92084862 48.96042431 3.92140946 44.05149102 1 38 C0.38770861 33.89022595 0.47485225 30.11365737 1 26 C3 29 3 29 2.75 32.625 C2.55676822 38.09651037 5.60300899 41.93490272 9 46 C9.33 46 9.66 46 10 46 C10 31.81 10 17.62 10 3 C3.67082039 2.47825081 3.67082039 2.47825081 1 4 C0.67 2.68 0.34 1.36 0 0 Z " fill="#33714F" transform="translate(44,55)"/>
<path d="M0 0 C0.495 0.99 0.495 0.99 1 2 C-0.68474722 5.36949443 -1.8191658 6.87944386 -5 9 C-3.576875 9.185625 -3.576875 9.185625 -2.125 9.375 C1 10 1 10 3 12 C3.66 12 4.32 12 5 12 C4.505 9.525 4.505 9.525 4 7 C4.99 6.67 5.98 6.34 7 6 C7.66 6.66 8.32 7.32 9 8 C9.33 7.34 9.66 6.68 10 6 C10.66 6 11.32 6 12 6 C10.34351561 9.72485138 8.02526235 12.76484421 5.5625 16 C4.78003906 17.03125 3.99757812 18.0625 3.19140625 19.125 C2.46824219 20.07375 1.74507812 21.0225 1 22 C0.6282666 22.71124023 0.2565332 23.42248047 -0.12646484 24.15527344 C-2.56967744 26.56091774 -4.49532283 26.45458375 -7.82865906 26.45318604 C-8.98661736 26.42221832 -8.98661736 26.42221832 -10.16796875 26.390625 C-10.96278152 26.38496521 -11.7575943 26.37930542 -12.57649231 26.37347412 C-15.11410866 26.35109004 -17.6503108 26.30089262 -20.1875 26.25 C-21.90818273 26.2299375 -23.62888759 26.21168629 -25.34960938 26.1953125 C-29.56695082 26.15121894 -33.78323569 26.08217965 -38 26 C-38 25.34 -38 24.68 -38 24 C-37.21625 24.020625 -36.4325 24.04125 -35.625 24.0625 C-33.01885039 24.18684063 -33.01885039 24.18684063 -31 23 C-31 23.66 -31 24.32 -31 25 C-27.12444143 24.88957755 -23.24980668 24.75907636 -19.375 24.625 C-17.73337891 24.57859375 -17.73337891 24.57859375 -16.05859375 24.53125 C-8.32303819 24.31427812 -8.32303819 24.31427812 -1 22 C0.50239807 19.81469372 1 18.64044305 1 16 C0.175 15.505 -0.65 15.01 -1.5 14.5 C-2.325 14.005 -3.15 13.51 -4 13 C-4 12.34 -4 11.68 -4 11 C-4.639375 11.495 -5.27875 11.99 -5.9375 12.5 C-10.04023483 14.50950277 -13.51443582 14.26385672 -18 14 C-18 13.67 -18 13.34 -18 13 C-16.700625 12.896875 -15.40125 12.79375 -14.0625 12.6875 C-7.1664211 11.25355344 -3.85907908 5.4556248 0 0 Z " fill="#78A457" transform="translate(61,19)"/>
<path d="M0 0 C0.66 0.33 1.32 0.66 2 1 C1.01 2.65 0.02 4.3 -1 6 C-15.19 5.67 -29.38 5.34 -44 5 C-41.63366992 2.63366992 -41.13363844 2.73892764 -37.91748047 2.68115234 C-37.07675995 2.66128265 -36.23603943 2.64141296 -35.36984253 2.62094116 C-34.46146637 2.60938995 -33.55309021 2.59783875 -32.6171875 2.5859375 C-31.22308151 2.55688828 -31.22308151 2.55688828 -29.80081177 2.5272522 C-26.8256352 2.46736315 -23.85042012 2.4210339 -20.875 2.375 C-18.86066 2.33682879 -16.84633646 2.29777757 -14.83203125 2.2578125 C-9.88815425 2.161654 -4.94420083 2.0776576 0 2 C0 1.34 0 0.68 0 0 Z " fill="#76A25B" transform="translate(119,16)"/>
<path d="M0 0 C1.14570465 0.00990463 2.2914093 0.01980927 3.47183228 0.03001404 C7.12056063 0.069107 10.76624806 0.15692923 14.4140625 0.24609375 C16.89188355 0.28121375 19.36975189 0.31315153 21.84765625 0.34179688 C27.91249067 0.4188525 33.97555934 0.53589365 40.0390625 0.68359375 C40.0390625 1.01359375 40.0390625 1.34359375 40.0390625 1.68359375 C23.2090625 1.68359375 6.3790625 1.68359375 -10.9609375 1.68359375 C-11.6209375 3.33359375 -12.2809375 4.98359375 -12.9609375 6.68359375 C-13.9509375 7.01359375 -14.9409375 7.34359375 -15.9609375 7.68359375 C-16.69417546 9.69867733 -16.69417546 9.69867733 -16.9609375 11.68359375 C-17.9509375 11.68359375 -18.9409375 11.68359375 -19.9609375 11.68359375 C-15.16429345 1.72143222 -11.07456036 -0.36161233 0 0 Z " fill="#7DA75B" transform="translate(81.9609375,7.31640625)"/>
<path d="M0 0 C1.32 0.33 2.64 0.66 4 1 C2.125 4.875 2.125 4.875 1 6 C-1.6662603 6.08855161 -4.30647114 6.11524673 -6.97265625 6.09765625 C-7.77029892 6.0962413 -8.56794159 6.09482635 -9.38975525 6.09336853 C-11.94737435 6.08775316 -14.50490718 6.07519812 -17.0625 6.0625 C-18.79231645 6.05748698 -20.52213426 6.05292373 -22.25195312 6.04882812 C-26.50133553 6.03777875 -30.75065312 6.02050386 -35 6 C-35 5.67 -35 5.34 -35 5 C-17.675 4.01 -17.675 4.01 0 3 C0 2.01 0 1.02 0 0 Z " fill="#587C42" transform="translate(45,16)"/>
<path d="M0 0 C5.94 0 11.88 0 18 0 C18 0.66 18 1.32 18 2 C13.05 2 8.1 2 3 2 C3.33 3.98 3.66 5.96 4 8 C4.66 8 5.32 8 6 8 C5.67 9.32 5.34 10.64 5 12 C4.15556432 10.75747321 3.3248542 9.5056114 2.5 8.25 C1.80390625 7.20585938 1.80390625 7.20585938 1.09375 6.140625 C0 4 0 4 0 0 Z " fill="#769E5F" transform="translate(17,31)"/>
<path d="M0 0 C2.475 0.495 2.475 0.495 5 1 C5.268125 1.94875 5.53625 2.8975 5.8125 3.875 C6.74986588 7.25267273 6.74986588 7.25267273 10 9 C12.73872955 9.45772063 12.73872955 9.45772063 15.6875 9.625 C16.68136719 9.69976562 17.67523437 9.77453125 18.69921875 9.8515625 C19.45847656 9.90054687 20.21773437 9.94953125 21 10 C21 10.33 21 10.66 21 11 C16.05 11 11.1 11 6 11 C4.02 7.37 2.04 3.74 0 0 Z " fill="#769E59" transform="translate(3,10)"/>
<path d="M0 0 C0.99 0.66 1.98 1.32 3 2 C3.33 1.34 3.66 0.68 4 0 C4.66 0 5.32 0 6 0 C4.22054913 4.04420651 1.60470327 7.46078487 -1 11 C-2.11002992 7.66991025 -1.68516272 6.34016824 -1 3 C-1.33 2.34 -1.66 1.68 -2 1 C-1.34 0.67 -0.68 0.34 0 0 Z " fill="#76A354" transform="translate(67,25)"/>
<path d="M0 0 C0.33 0.99 0.66 1.98 1 3 C-0.3125 5.1875 -0.3125 5.1875 -2 7 C-2.66 7 -3.32 7 -4 7 C-4.33 8.32 -4.66 9.64 -5 11 C-5.99 11 -6.98 11 -8 11 C-6.63629701 8.00779732 -5.05091917 5.70973471 -2.875 3.25 C-2.33617188 2.63640625 -1.79734375 2.0228125 -1.2421875 1.390625 C-0.62730469 0.70226562 -0.62730469 0.70226562 0 0 Z " fill="#789F57" transform="translate(70,8)"/>
<path d="M0 0 C1.98 0 3.96 0 6 0 C2.375 6.75 2.375 6.75 -1 9 C-0.835 8.236875 -0.67 7.47375 -0.5 6.6875 C0.09145396 3.96403764 0.09145396 3.96403764 0 1 C0 0.67 0 0.34 0 0 Z " fill="#7BA25A" transform="translate(50,8)"/>
<path d="M0 0 C2.89932357 2.39509338 3.50168276 4.31245243 4 8 C4.66 8 5.32 8 6 8 C5.67 9.32 5.34 10.64 5 12 C4.15556432 10.75747321 3.3248542 9.5056114 2.5 8.25 C1.80390625 7.20585938 1.80390625 7.20585938 1.09375 6.140625 C0 4 0 4 0 0 Z " fill="#82A457" transform="translate(17,31)"/>
<path d="M0 0 C1.32 0.66 2.64 1.32 4 2 C3.2884375 2.6496875 3.2884375 2.6496875 2.5625 3.3125 C0.76313043 5.02309613 0.76313043 5.02309613 0 8 C-0.66 8 -1.32 8 -2 8 C-2 6.02 -2 4.04 -2 2 C-1.34 2 -0.68 2 0 2 C0 1.34 0 0.68 0 0 Z " fill="#6B9E46" transform="translate(75,16)"/>
<path d="M0 0 C2.31 0 4.62 0 7 0 C7 0.99 7 1.98 7 3 C4.69 2.67 2.38 2.34 0 2 C0 1.34 0 0.68 0 0 Z " fill="#709145" transform="translate(3,8)"/>
<path d="M0 0 C0.66 0.33 1.32 0.66 2 1 C-0.97 4.96 -0.97 4.96 -4 9 C-4.33 7.68 -4.66 6.36 -5 5 C-4.34 5 -3.68 5 -3 5 C-2.5359375 4.0409375 -2.5359375 4.0409375 -2.0625 3.0625 C-1 1 -1 1 0 0 Z " fill="#759957" transform="translate(63,36)"/>
<path d="M0 0 C0.33 0 0.66 0 1 0 C1 2.31 1 4.62 1 7 C1.99 7.33 2.98 7.66 4 8 C3.67 8.66 3.34 9.32 3 10 C2.01 10 1.02 10 0 10 C0 6.7 0 3.4 0 0 Z " fill="#257146" transform="translate(70,97)"/>
</svg>
